<svg width="40" height="46" viewBox="0 0 40 46" fill="none" xmlns="http://www.w3.org/2000/svg">
<path id="Vector" d="M20 0C18.7645 0 17.5878 0.278207 16.4624 0.790079L16.9605 3.04374H23.0395L23.5377 0.790079C22.4123 0.278207 21.2355 0 20 0ZM14.8092 1.72961C14.2082 2.14073 13.6219 2.6175 13.0495 3.15362C10.9993 5.07408 9.17016 7.73886 7.61403 10.6293C11.8575 11.8976 14.761 12.699 17.3088 13.0376L14.8092 1.72961ZM25.1908 1.72961L22.6912 13.0377C25.239 12.699 28.1424 11.8976 32.386 10.6293C30.8298 7.73886 29.0008 5.07408 26.9505 3.15362C26.3782 2.6175 25.7918 2.14073 25.1908 1.72961ZM17.3642 4.87004L19.1137 12.784H20.8863L22.6358 4.87004H17.3642ZM6.76602 12.2767C6.53116 12.7549 6.30294 13.2363 6.08141 13.7209C14.6314 17.3248 25.3686 17.3248 33.9186 13.7209C33.6971 13.2363 33.4688 12.7548 33.234 12.2766C21.1088 15.8744 18.8912 15.8745 6.76602 12.2767ZM5.34573 15.393C3.50861 19.7349 2.27334 23.9325 1.63718 26.4138L6.37451 31.1761V40.7648L15.4879 46L12.7037 32.0046L7.78752 27.0626V26.6843C7.78752 24.7565 8.67046 22.6584 9.71861 20.7618C10.4187 19.4952 11.1937 18.341 11.9039 17.4392C9.63938 16.9617 7.43578 16.2797 5.34573 15.393ZM34.6543 15.393C32.5642 16.2798 30.3607 16.9616 28.0961 17.4391C28.8063 18.3408 29.5813 19.4951 30.2814 20.7617C31.3295 22.6584 32.2125 24.7564 32.2125 26.6842V27.0626L27.2963 32.0046L24.5121 46L33.6255 40.7648V31.1761L38.3629 26.4139C37.7267 23.9326 36.4914 19.7348 34.6543 15.393ZM19.2657 18.4149L17.9814 26.6843L20 29.9311L22.0186 26.6843L20.7343 18.4148C20.2441 18.4364 19.7559 18.4365 19.2657 18.4149ZM1.66362 29.0233C1.3839 29.8724 1.12674 30.7289 0.892419 31.5918C0.889593 31.6019 0.88707 31.6121 0.884345 31.6222L4.55778 33.8376V31.9327L1.66362 29.0233ZM38.3364 29.0233L35.4422 31.9327V33.8376L39.1157 31.6221C39.1129 31.612 39.1104 31.6018 39.1076 31.5917C38.8733 30.7288 38.6161 29.8724 38.3364 29.0233ZM0.42673 33.4758C0.231129 34.3474 0.0841753 35.1215 0 35.6725C0.366273 35.7818 0.743044 35.9371 1.15968 36.1211C1.9548 36.4725 2.83663 36.9445 3.70321 37.4683C3.99074 37.642 4.27563 37.8201 4.55778 38.0025V35.9677L0.42673 33.4758ZM39.5733 33.4758L35.4422 35.9676V38.0025C35.7244 37.8201 36.0093 37.642 36.2968 37.4683C37.1634 36.9445 38.0452 36.4725 38.8403 36.1211C39.257 35.9371 39.6337 35.7818 40 35.6725C39.9158 35.1215 39.7689 34.3474 39.5733 33.4758Z" fill="#FBBC05"/>
</svg>
