<svg width="55" height="55" viewBox="0 0 55 55" fill="none" xmlns="http://www.w3.org/2000/svg">
<g id="mdi:sword-cross">
<path id="Vector" d="M14.2084 5.59155L41.4792 32.8624L46.3375 28.0041L49.5688 31.2353L43.9084 36.8957L51.1959 44.1832C52.0896 45.077 52.0896 46.5207 51.1959 47.4145L49.5688 49.0416C49.3568 49.254 49.105 49.4226 48.8277 49.5375C48.5505 49.6525 48.2533 49.7117 47.9532 49.7117C47.653 49.7117 47.3558 49.6525 47.0786 49.5375C46.8014 49.4226 46.5496 49.254 46.3375 49.0416L38.9584 41.777L33.3667 47.4374L30.1355 44.2061L34.9938 39.3478L7.72297 12.077V5.59155H14.2084ZM36.4146 22.9166L47.2771 12.0541V5.59155H40.7917L29.9292 16.4541L36.4146 22.9166ZM25.0709 34.3749L18.5855 27.7978L13.5209 32.8624L8.66255 28.0041L5.4313 31.2353L11.0917 36.8957L3.80422 44.2061C3.59177 44.4182 3.42323 44.67 3.30823 44.9472C3.19323 45.2244 3.13403 45.5216 3.13403 45.8218C3.13403 46.1219 3.19323 46.4191 3.30823 46.6963C3.42323 46.9736 3.59177 47.2254 3.80422 47.4374L5.4313 49.0645C6.32505 49.9582 7.7688 49.9582 8.66255 49.0645L16.0417 41.777L21.6334 47.4374L24.8646 44.2061L20.0063 39.3478L25.0709 34.3749Z" fill="#FBBC05"/>
</g>
</svg>
