<svg width="29" height="34" viewBox="0 0 29 34" fill="none" xmlns="http://www.w3.org/2000/svg">
<path d="M28.0385 26.4962C27.5245 27.6841 26.9159 28.7774 26.2105 29.7829C25.2494 31.1533 24.4624 32.1018 23.8559 32.6288C22.9157 33.4934 21.9083 33.9361 20.8296 33.9613C20.0551 33.9613 19.1212 33.7411 18.0341 33.294C16.9434 32.849 15.9411 32.6288 15.0246 32.6288C14.0634 32.6288 13.0325 32.849 11.9298 33.294C10.8255 33.7411 9.93586 33.9739 9.25566 33.9971C8.22122 34.0409 7.19014 33.5856 6.16092 32.6288C5.50403 32.0557 4.68241 31.0734 3.6981 29.6821C2.64204 28.1962 1.77383 26.4732 1.09363 24.5088C0.365173 22.387 0 20.3324 0 18.3432C0 16.0647 0.492358 14.0995 1.47854 12.4526C2.25359 11.1298 3.28467 10.0863 4.57516 9.32032C5.86565 8.55429 7.26002 8.16392 8.76164 8.13895C9.58329 8.13895 10.6607 8.39312 11.9997 8.8926C13.3349 9.39375 14.1922 9.64792 14.5681 9.64792C14.8491 9.64792 15.8015 9.35074 17.416 8.75829C18.9428 8.20885 20.2314 7.98135 21.2871 8.07096C24.1476 8.30181 26.2967 9.42944 27.7258 11.461C25.1676 13.0111 23.9021 15.1822 23.9272 17.9674C23.9503 20.1368 24.7373 21.9421 26.2841 23.3755C26.9849 24.0408 27.7679 24.555 28.6388 24.9201C28.4501 25.4679 28.2505 25.9926 28.0385 26.4962ZM21.4781 0.680191C21.4781 2.38057 20.8568 3.96822 19.6186 5.43773C18.1243 7.18467 16.317 8.19416 14.357 8.03487C14.332 7.83088 14.3175 7.61617 14.3175 7.39056C14.3175 5.7582 15.0281 4.01124 16.2901 2.58287C16.9201 1.85966 17.7214 1.25832 18.6931 0.77862C19.6627 0.306077 20.5798 0.044751 21.4424 0C21.4676 0.227315 21.4781 0.454644 21.4781 0.680169V0.680191Z" fill="#2B2828"/>
</svg>
