<svg width="49" height="49" viewBox="0 0 49 49" fill="none" xmlns="http://www.w3.org/2000/svg">
<g id="mdi:book">
<path id="Vector" d="M36.7501 44.9166C37.833 44.9166 38.8717 44.4864 39.6374 43.7206C40.4032 42.9548 40.8334 41.9162 40.8334 40.8332V8.16658C40.8334 7.08362 40.4032 6.04501 39.6374 5.27923C38.8717 4.51346 37.833 4.08325 36.7501 4.08325H24.5001V18.3749L19.3959 15.3124L14.2917 18.3749V4.08325H12.2501C11.1671 4.08325 10.1285 4.51346 9.36273 5.27923C8.59696 6.04501 8.16675 7.08362 8.16675 8.16658V40.8332C8.16675 41.9162 8.59696 42.9548 9.36273 43.7206C10.1285 44.4864 11.1671 44.9166 12.2501 44.9166H36.7501Z" fill="#FBBC05"/>
</g>
</svg>
