<svg width="50" height="50" viewBox="0 0 50 50" fill="none" xmlns="http://www.w3.org/2000/svg">
<g id="streamline:money-graph-bar-increase-up-product-performance-increase-arrow-graph-business-chart">
<g id="Vector">
<path d="M29.4642 48.2499H20.5356V28.6071C20.5356 28.1335 20.7237 27.6793 21.0586 27.3444C21.3935 27.0095 21.8477 26.8214 22.3213 26.8214H27.6785C28.1521 26.8214 28.6063 27.0095 28.9412 27.3444C29.276 27.6793 29.4642 28.1335 29.4642 28.6071V48.2499Z" fill="#4BC0AF"/>
<path d="M11.607 48.2499H2.67847V33.9642C2.67847 33.4906 2.8666 33.0364 3.20149 32.7015C3.53638 32.3666 3.99058 32.1785 4.46418 32.1785H9.82132C10.2949 32.1785 10.7491 32.3666 11.084 32.7015C11.4189 33.0364 11.607 33.4906 11.607 33.9642V48.2499Z" fill="#4BC0AF"/>
<path d="M47.3213 48.2499H38.3928V23.2499C38.3928 22.7763 38.5809 22.3221 38.9158 21.9872C39.2507 21.6524 39.7049 21.4642 40.1785 21.4642H45.5356C46.0092 21.4642 46.4634 21.6524 46.7983 21.9872C47.1332 22.3221 47.3213 22.7763 47.3213 23.2499V48.2499Z" fill="#4BC0AF"/>
<path d="M4.42847 23.3571L45.4999 4.6785M45.4999 4.6785L37.8213 1.78564M45.4999 4.6785L42.6427 12.3571M47.3213 48.2499H38.3928V23.2499C38.3928 22.7763 38.5809 22.3221 38.9158 21.9872C39.2507 21.6524 39.7049 21.4642 40.1785 21.4642H45.5356C46.0092 21.4642 46.4634 21.6524 46.7983 21.9872C47.1332 22.3221 47.3213 22.7763 47.3213 23.2499V48.2499ZM29.4642 48.2499H20.5356V28.6071C20.5356 28.1335 20.7237 27.6793 21.0586 27.3444C21.3935 27.0095 21.8477 26.8214 22.3213 26.8214H27.6785C28.1521 26.8214 28.6063 27.0095 28.9412 27.3444C29.276 27.6793 29.4642 28.1335 29.4642 28.6071V48.2499ZM11.607 48.2499H2.67847V33.9642C2.67847 33.4906 2.8666 33.0364 3.20149 32.7015C3.53638 32.3666 3.99058 32.1785 4.46418 32.1785H9.82132C10.2949 32.1785 10.7491 32.3666 11.084 32.7015C11.4189 33.0364 11.607 33.4906 11.607 33.9642V48.2499Z" stroke="#4BC0AF" stroke-linecap="round" stroke-linejoin="round"/>
</g>
</g>
</svg>
