<svg width="30" height="29" viewBox="0 0 30 29" fill="none" xmlns="http://www.w3.org/2000/svg">
<path d="M8.99752 23.2C7.34798 23.2 6.01334 24.505 6.01334 26.1C6.01334 27.695 7.34798 29 8.99752 29C10.6471 29 11.9967 27.695 11.9967 26.1C11.9967 24.505 10.6471 23.2 8.99752 23.2ZM0 1.45C0 2.2475 0.674814 2.9 1.49959 2.9H2.99917L8.39769 13.9055L6.37325 17.4435C5.27855 19.3865 6.71815 21.75 8.99752 21.75H25.493C26.3178 21.75 26.9926 21.0975 26.9926 20.3C26.9926 19.5025 26.3178 18.85 25.493 18.85H8.99752L10.6471 15.95H21.819C22.9437 15.95 23.9334 15.3555 24.4433 14.4565L29.8118 5.046C29.9382 4.82622 30.003 4.57833 29.9999 4.32688C29.9968 4.07543 29.9258 3.82912 29.794 3.61233C29.6622 3.39554 29.4742 3.21578 29.2485 3.09085C29.0228 2.96591 28.7672 2.90013 28.5072 2.9H6.31326L5.30854 0.826502C5.18802 0.578996 4.99707 0.36981 4.75805 0.223437C4.51903 0.0770638 4.24183 -0.000439148 3.95891 1.87173e-06H1.49959C0.674814 1.87173e-06 0 0.652502 0 1.45ZM23.9934 23.2C22.3438 23.2 21.0092 24.505 21.0092 26.1C21.0092 27.695 22.3438 29 23.9934 29C25.6429 29 26.9926 27.695 26.9926 26.1C26.9926 24.505 25.6429 23.2 23.9934 23.2Z" fill="#439289"/>
</svg>
