<svg width="31" height="29" viewBox="0 0 31 29" fill="none" xmlns="http://www.w3.org/2000/svg">
<path d="M22.7997 5.8V2.9H10.8594V5.8M9.36684 23.2C7.72505 23.2 6.38177 24.505 6.38177 26.1C6.38177 27.695 7.72505 29 9.36684 29C11.0086 29 12.3519 27.695 12.3519 26.1C12.3519 24.505 11.0086 23.2 9.36684 23.2ZM24.2922 23.2C22.6504 23.2 21.3071 24.505 21.3071 26.1C21.3071 27.695 22.6504 29 24.2922 29C25.934 29 27.2773 27.695 27.2773 26.1C27.2773 24.505 25.934 23.2 24.2922 23.2ZM9.66535 18.56V18.415L11.0086 15.95H22.0534C23.0982 15.95 24.143 15.37 24.5907 14.5L30.4116 4.35L27.8743 2.9L22.0534 13.05H11.6057L5.33699 0H0.411621V2.9H3.3967L8.76983 13.92L6.68028 17.4C6.53102 17.835 6.38177 18.27 6.38177 18.85C6.38177 20.445 7.72505 21.75 9.36684 21.75H27.2773V18.85H9.96386C9.81461 18.85 9.66535 18.705 9.66535 18.56Z" fill="#439289"/>
</svg>
