<svg width="26" height="25" viewBox="0 0 26 25" fill="none" xmlns="http://www.w3.org/2000/svg">
<g id="Group 108">
<g id="Rectangle 9">
<mask id="path-1-inside-1_34_84" fill="white">
<rect y="0.222168" width="11.5556" height="11.5556" rx="2"/>
</mask>
<rect y="0.222168" width="11.5556" height="11.5556" rx="2" fill="#439289" stroke="#439289" stroke-width="5" mask="url(#path-1-inside-1_34_84)"/>
</g>
<g id="Rectangle 10">
<mask id="path-2-inside-2_34_84" fill="white">
<rect x="14.4443" y="0.222168" width="11.5556" height="11.5556" rx="2"/>
</mask>
<rect x="14.4443" y="0.222168" width="11.5556" height="11.5556" rx="2" fill="#439289" stroke="#439289" stroke-width="5" mask="url(#path-2-inside-2_34_84)"/>
</g>
<path id="Rectangle 11" d="M1.25 15.2222C1.25 14.808 1.58579 14.4722 2 14.4722H9.55558C9.96979 14.4722 10.3056 14.808 10.3056 15.2222V22.7777C10.3056 23.192 9.96979 23.5277 9.55558 23.5277H2C1.58579 23.5277 1.25 23.192 1.25 22.7777V15.2222Z" fill="#439289" stroke="#439289" stroke-width="2.5"/>
<g id="Rectangle 12">
<mask id="path-4-inside-3_34_84" fill="white">
<rect x="14.4443" y="13.2222" width="11.5556" height="11.5556" rx="2"/>
</mask>
<rect x="14.4443" y="13.2222" width="11.5556" height="11.5556" rx="2" fill="#439289" stroke="#439289" stroke-width="5" mask="url(#path-4-inside-3_34_84)"/>
</g>
</g>
</svg>
