<svg width="56" height="56" viewBox="0 0 56 56" fill="none" xmlns="http://www.w3.org/2000/svg">
<g id="mdi:comedy">
<path id="Vector" d="M18.9234 45.3833C16.3434 44.4331 14.0476 42.8423 12.2516 40.7606C10.4556 38.6789 9.21854 36.1747 8.65671 33.4833L4.78338 15.26C4.22338 12.74 5.83338 10.2666 8.35338 9.72997L31.15 4.89997L31.22 4.87664C33.7167 4.38664 36.1667 5.99664 36.68 8.46997L37.4967 12.3666L47.6467 14.5366H47.7167C50.1667 15.0966 51.7534 17.57 51.24 20.0433L47.3667 38.29C46.9196 40.386 46.064 42.3735 44.8487 44.1388C43.6334 45.9041 42.0823 47.4128 40.2838 48.5785C38.4854 49.7442 36.4749 50.5442 34.3672 50.9328C32.2596 51.3214 30.096 51.291 28 50.8433C24.4444 50.1012 21.245 48.1767 18.9234 45.3833ZM46.6667 19.0866L23.87 14.2333L19.9967 32.48V32.55C18.6667 38.8033 22.7034 44.9633 28.98 46.2933C35.2567 47.6233 41.4634 43.61 42.7934 37.3333L46.6667 19.0866ZM37.3334 38.5C36.5962 39.7479 35.4855 40.7325 34.1581 41.3145C32.8307 41.8965 31.354 42.0465 29.9367 41.7433C28.5239 41.441 27.2406 40.7051 26.266 39.6385C25.2914 38.5719 24.674 37.2276 24.5 35.7933L37.3334 38.5ZM19.7634 12.0633L9.33338 14.3033L13.2067 32.5266L13.23 32.5966C13.58 34.2533 14.28 35.7466 15.2367 37.03C15.0034 35.2333 15.05 33.3666 15.4467 31.5L16.45 26.8333C15.4 26.6466 14.49 26.0633 14 25.2233C14.14 23.8 15.3067 22.54 16.9167 22.1666H17.5L19.32 13.2766C19.4134 12.8333 19.5534 12.4366 19.7634 12.0633ZM35.07 28.5366C35.8167 27.3 37.4034 26.6466 39.0134 26.9966C40.6234 27.3233 41.79 28.56 42 30.0066C41.23 31.22 39.6667 31.8733 38.0334 31.5C36.4234 31.1966 35.2567 29.96 35.07 28.5366ZM23.6834 26.11C24.43 24.8733 25.9934 24.22 27.6034 24.57C29.1667 24.8966 30.4034 26.1566 30.59 27.58C29.82 28.7933 28.2567 29.47 26.6467 29.1666C25.0367 28.77 23.87 27.5333 23.6834 26.11ZM27.93 10.3366L32.5034 11.3166L32.13 9.44997L27.93 10.3366Z" fill="#8C97FC"/>
</g>
</svg>
