<svg width="37" height="37" viewBox="0 0 37 37" fill="none" xmlns="http://www.w3.org/2000/svg">
<path d="M18.5 37C28.7173 37 37 28.7173 37 18.5C37 8.28274 28.7173 0 18.5 0C8.28274 0 0 8.28274 0 18.5C0 28.7173 8.28274 37 18.5 37Z" fill="#1977F3"/>
<path d="M25.7013 23.8489L26.5208 18.5H21.3904V15.0294C21.3904 13.5673 22.1058 12.139 24.4057 12.139H26.7393V7.58623C26.7393 7.58623 24.6216 7.22461 22.5975 7.22461C18.3725 7.22461 15.6096 9.78459 15.6096 14.4233V18.5H10.9111V23.8489H15.6096V36.7763C16.5514 36.9246 17.5166 37 18.5 37C19.4834 37 20.4486 36.922 21.3904 36.7763V23.8489H25.7013Z" fill="#FAFAFA"/>
</svg>
