<svg width="35" height="35" viewBox="0 0 35 35" fill="none" xmlns="http://www.w3.org/2000/svg">
<g clip-path="url(#clip0_28_775)">
<path d="M34.9816 17.8274C34.9816 16.3935 34.8625 15.3471 34.6048 14.262H17.8486V20.734H27.6841C27.4859 22.3424 26.4151 24.7646 24.0355 26.3923L24.0021 26.6089L29.3001 30.6196L29.6672 30.6554C33.0382 27.6131 34.9816 23.1369 34.9816 17.8274Z" fill="#4285F4"/>
<path d="M17.8486 34.8798C22.6671 34.8798 26.7124 33.3295 29.6671 30.6555L24.0354 26.3923C22.5284 27.4193 20.5057 28.1363 17.8486 28.1363C13.1291 28.1363 9.12353 25.0941 7.69565 20.8892L7.48636 20.9065L1.97744 25.0727L1.9054 25.2684C4.84017 30.9654 10.8684 34.8798 17.8486 34.8798Z" fill="#34A853"/>
<path d="M7.69571 20.8891C7.31895 19.8039 7.1009 18.6412 7.1009 17.4398C7.1009 16.2384 7.31895 15.0757 7.67588 13.9906L7.6659 13.7595L2.08794 9.52637L1.90544 9.6112C0.695881 11.9753 0.00183105 14.6301 0.00183105 17.4398C0.00183105 20.2496 0.695881 22.9042 1.90544 25.2683L7.69571 20.8891Z" fill="#FBBC05"/>
<path d="M17.8486 6.74338C21.1998 6.74338 23.4603 8.15794 24.7493 9.34005L29.7861 4.53437C26.6927 1.72462 22.6672 0 17.8486 0C10.8684 0 4.84017 3.91425 1.9054 9.61124L7.67584 13.9906C9.12354 9.7857 13.1291 6.74338 17.8486 6.74338Z" fill="#EB4335"/>
</g>
<defs>
<clipPath id="clip0_28_775">
<rect width="35" height="35" fill="white"/>
</clipPath>
</defs>
</svg>
