<svg width="28" height="29" viewBox="0 0 28 29" fill="none" xmlns="http://www.w3.org/2000/svg">
<path d="M8.94444 16.0556C9.8727 16.0556 10.7629 16.4243 11.4193 17.0807C12.0757 17.7371 12.4444 18.6273 12.4444 19.5556V25C12.4444 25.9283 12.0757 26.8185 11.4193 27.4749C10.7629 28.1313 9.8727 28.5 8.94444 28.5H3.5C2.57174 28.5 1.6815 28.1313 1.02513 27.4749C0.368749 26.8185 0 25.9283 0 25V19.5556C0 18.6273 0.368749 17.7371 1.02513 17.0807C1.6815 16.4243 2.57174 16.0556 3.5 16.0556H8.94444ZM24.5 16.0556C25.4283 16.0556 26.3185 16.4243 26.9749 17.0807C27.6313 17.7371 28 18.6273 28 19.5556V25C28 25.9283 27.6313 26.8185 26.9749 27.4749C26.3185 28.1313 25.4283 28.5 24.5 28.5H19.0556C18.1273 28.5 17.2371 28.1313 16.5807 27.4749C15.9243 26.8185 15.5556 25.9283 15.5556 25V19.5556C15.5556 18.6273 15.9243 17.7371 16.5807 17.0807C17.2371 16.4243 18.1273 16.0556 19.0556 16.0556H24.5ZM8.94444 18.3889H3.5C3.19058 18.3889 2.89383 18.5118 2.67504 18.7306C2.45625 18.9494 2.33333 19.2461 2.33333 19.5556V25C2.33333 25.644 2.856 26.1667 3.5 26.1667H8.94444C9.25386 26.1667 9.55061 26.0438 9.7694 25.825C9.98819 25.6062 10.1111 25.3094 10.1111 25V19.5556C10.1111 19.2461 9.98819 18.9494 9.7694 18.7306C9.55061 18.5118 9.25386 18.3889 8.94444 18.3889ZM24.5 18.3889H19.0556C18.7461 18.3889 18.4494 18.5118 18.2306 18.7306C18.0118 18.9494 17.8889 19.2461 17.8889 19.5556V25C17.8889 25.644 18.4116 26.1667 19.0556 26.1667H24.5C24.8094 26.1667 25.1062 26.0438 25.325 25.825C25.5438 25.6062 25.6667 25.3094 25.6667 25V19.5556C25.6667 19.2461 25.5438 18.9494 25.325 18.7306C25.1062 18.5118 24.8094 18.3889 24.5 18.3889ZM8.94444 0.5C9.8727 0.5 10.7629 0.868749 11.4193 1.52513C12.0757 2.1815 12.4444 3.07174 12.4444 4V9.44444C12.4444 10.3727 12.0757 11.2629 11.4193 11.9193C10.7629 12.5757 9.8727 12.9444 8.94444 12.9444H3.5C2.57174 12.9444 1.6815 12.5757 1.02513 11.9193C0.368749 11.2629 0 10.3727 0 9.44444V4C0 3.07174 0.368749 2.1815 1.02513 1.52513C1.6815 0.868749 2.57174 0.5 3.5 0.5H8.94444ZM24.5 0.5C25.4283 0.5 26.3185 0.868749 26.9749 1.52513C27.6313 2.1815 28 3.07174 28 4V9.44444C28 10.3727 27.6313 11.2629 26.9749 11.9193C26.3185 12.5757 25.4283 12.9444 24.5 12.9444H19.0556C18.1273 12.9444 17.2371 12.5757 16.5807 11.9193C15.9243 11.2629 15.5556 10.3727 15.5556 9.44444V4C15.5556 3.07174 15.9243 2.1815 16.5807 1.52513C17.2371 0.868749 18.1273 0.5 19.0556 0.5H24.5ZM8.94444 2.83333H3.5C3.19058 2.83333 2.89383 2.95625 2.67504 3.17504C2.45625 3.39383 2.33333 3.69058 2.33333 4V9.44444C2.33333 10.0884 2.856 10.6111 3.5 10.6111H8.94444C9.25386 10.6111 9.55061 10.4882 9.7694 10.2694C9.98819 10.0506 10.1111 9.75386 10.1111 9.44444V4C10.1111 3.69058 9.98819 3.39383 9.7694 3.17504C9.55061 2.95625 9.25386 2.83333 8.94444 2.83333ZM24.5 2.83333H19.0556C18.7461 2.83333 18.4494 2.95625 18.2306 3.17504C18.0118 3.39383 17.8889 3.69058 17.8889 4V9.44444C17.8889 10.0884 18.4116 10.6111 19.0556 10.6111H24.5C24.8094 10.6111 25.1062 10.4882 25.325 10.2694C25.5438 10.0506 25.6667 9.75386 25.6667 9.44444V4C25.6667 3.69058 25.5438 3.39383 25.325 3.17504C25.1062 2.95625 24.8094 2.83333 24.5 2.83333Z" fill="#439289"/>
</svg>
