<svg width="28" height="28" viewBox="0 0 28 28" fill="none" xmlns="http://www.w3.org/2000/svg">
<mask id="path-1-inside-1_34_84" fill="white">
<rect y="0.777832" width="12.4445" height="12.4445" rx="2"/>
</mask>
<rect y="0.777832" width="12.4445" height="12.4445" rx="2" fill="#439289" stroke="#439289" stroke-width="5" mask="url(#path-1-inside-1_34_84)"/>
<mask id="path-2-inside-2_34_84" fill="white">
<rect x="15.5554" y="0.777832" width="12.4445" height="12.4445" rx="2"/>
</mask>
<rect x="15.5554" y="0.777832" width="12.4445" height="12.4445" rx="2" fill="#439289" stroke="#439289" stroke-width="5" mask="url(#path-2-inside-2_34_84)"/>
<path d="M2 16.0278H10.4445C10.8587 16.0278 11.1945 16.3636 11.1945 16.7778V25.2223C11.1945 25.6365 10.8587 25.9723 10.4445 25.9723H2C1.58579 25.9723 1.25 25.6365 1.25 25.2223V16.7778C1.25 16.3636 1.58579 16.0278 2 16.0278Z" fill="#439289" stroke="#439289" stroke-width="2.5"/>
<mask id="path-4-inside-3_34_84" fill="white">
<rect x="15.5554" y="14.7778" width="12.4445" height="12.4445" rx="2"/>
</mask>
<rect x="15.5554" y="14.7778" width="12.4445" height="12.4445" rx="2" fill="#439289" stroke="#439289" stroke-width="5" mask="url(#path-4-inside-3_34_84)"/>
</svg>
