<svg width="28" height="28" viewBox="0 0 28 28" fill="none" xmlns="http://www.w3.org/2000/svg">
<path d="M8.94444 15.5556C9.8727 15.5556 10.7629 15.9243 11.4193 16.5807C12.0757 17.2371 12.4444 18.1273 12.4444 19.0556V24.5C12.4444 25.4283 12.0757 26.3185 11.4193 26.9749C10.7629 27.6313 9.8727 28 8.94444 28H3.5C2.57174 28 1.6815 27.6313 1.02513 26.9749C0.368749 26.3185 0 25.4283 0 24.5V19.0556C0 18.1273 0.368749 17.2371 1.02513 16.5807C1.6815 15.9243 2.57174 15.5556 3.5 15.5556H8.94444ZM24.5 15.5556C25.4283 15.5556 26.3185 15.9243 26.9749 16.5807C27.6313 17.2371 28 18.1273 28 19.0556V24.5C28 25.4283 27.6313 26.3185 26.9749 26.9749C26.3185 27.6313 25.4283 28 24.5 28H19.0556C18.1273 28 17.2371 27.6313 16.5807 26.9749C15.9243 26.3185 15.5556 25.4283 15.5556 24.5V19.0556C15.5556 18.1273 15.9243 17.2371 16.5807 16.5807C17.2371 15.9243 18.1273 15.5556 19.0556 15.5556H24.5ZM8.94444 0C9.8727 0 10.7629 0.368749 11.4193 1.02513C12.0757 1.6815 12.4444 2.57174 12.4444 3.5V8.94444C12.4444 9.8727 12.0757 10.7629 11.4193 11.4193C10.7629 12.0757 9.8727 12.4444 8.94444 12.4444H3.5C2.57174 12.4444 1.6815 12.0757 1.02513 11.4193C0.368749 10.7629 0 9.8727 0 8.94444V3.5C0 2.57174 0.368749 1.6815 1.02513 1.02513C1.6815 0.368749 2.57174 0 3.5 0H8.94444ZM24.5 0C25.4283 0 26.3185 0.368749 26.9749 1.02513C27.6313 1.6815 28 2.57174 28 3.5V8.94444C28 9.8727 27.6313 10.7629 26.9749 11.4193C26.3185 12.0757 25.4283 12.4444 24.5 12.4444H19.0556C18.1273 12.4444 17.2371 12.0757 16.5807 11.4193C15.9243 10.7629 15.5556 9.8727 15.5556 8.94444V3.5C15.5556 2.57174 15.9243 1.6815 16.5807 1.02513C17.2371 0.368749 18.1273 0 19.0556 0H24.5Z" fill="#439289"/>
</svg>
