<svg width="25" height="28" viewBox="0 0 25 28" fill="none" xmlns="http://www.w3.org/2000/svg">
<path d="M3.125 24.8H7.8125V15.2H17.1875V24.8H21.875V10.4L12.5 3.2L3.125 10.4V24.8ZM3.125 28C2.26563 28 1.52969 27.6864 0.91719 27.0592C0.30469 26.432 -0.00103901 25.6789 2.6528e-06 24.8V10.4C2.6528e-06 9.89333 0.11094 9.41333 0.332815 8.96C0.55469 8.50667 0.860419 8.13333 1.25 7.84L10.625 0.64C10.9115 0.426667 11.2109 0.266666 11.5234 0.16C11.8359 0.0533332 12.1615 0 12.5 0C12.8385 0 13.1641 0.0533332 13.4766 0.16C13.7891 0.266666 14.0885 0.426667 14.375 0.64L23.75 7.84C24.1406 8.13333 24.4469 8.50667 24.6687 8.96C24.8906 9.41333 25.001 9.89333 25 10.4V24.8C25 25.68 24.6937 26.4336 24.0812 27.0608C23.4687 27.688 22.7333 28.0011 21.875 28H14.0625V18.4H10.9375V28H3.125Z" fill="#439289"/>
</svg>
