<svg width="30" height="29" viewBox="0 0 30 29" fill="none" xmlns="http://www.w3.org/2000/svg">
<path d="M28.1905 0.272436C27.1525 0.0954044 26.1014 0.00427958 25.0482 6.23756e-06C21.4546 -0.00291089 17.9359 1.01742 14.9116 2.93938C11.8796 1.04266 8.36146 0.0473672 4.77507 0.0716982C3.72181 0.0759716 2.67073 0.167096 1.63274 0.344128C1.29274 0.402168 0.984842 0.578502 0.764491 0.841374C0.54414 1.10425 0.425819 1.43638 0.430835 1.77797V18.9841C0.427733 19.1947 0.471563 19.4035 0.559207 19.5955C0.64685 19.7875 0.776152 19.958 0.937913 20.0949C1.09967 20.2318 1.28992 20.3317 1.49511 20.3876C1.7003 20.4434 1.91539 20.4538 2.12509 20.4179C4.20021 20.0622 6.32626 20.1212 8.37799 20.5915C10.4297 21.0618 12.3656 21.934 14.0717 23.1565L14.2455 23.2569H14.4048C14.5654 23.3232 14.7376 23.3573 14.9116 23.3573C15.0856 23.3573 15.2579 23.3232 15.4185 23.2569H15.5777L15.7515 23.1565C17.4457 21.9067 19.3761 21.0063 21.4282 20.5087C23.4803 20.0112 25.6124 19.9267 27.6982 20.2602C27.9079 20.296 28.1229 20.2857 28.3281 20.2298C28.5333 20.174 28.7236 20.0741 28.8853 19.9372C29.0471 19.8003 29.1764 19.6298 29.264 19.4378C29.3517 19.2458 29.3955 19.037 29.3924 18.8263V1.62025C29.3773 1.29355 29.2499 0.981773 29.0313 0.736625C28.8127 0.491477 28.516 0.327692 28.1905 0.272436ZM13.4635 19.3282C10.7844 17.9326 7.80231 17.2043 4.77507 17.2061H3.32699V2.86769C3.80928 2.84017 4.29278 2.84017 4.77507 2.86769C7.86438 2.86431 10.8863 3.76196 13.4635 5.4486V19.3282ZM26.4963 17.2635H25.0482C22.0209 17.2616 19.0388 17.99 16.3597 19.3855V5.4486C18.937 3.76196 21.9589 2.86431 25.0482 2.86769C25.5305 2.84017 26.014 2.84017 26.4963 2.86769V17.2635ZM28.1905 23.2139C27.1525 23.0369 26.1014 22.9457 25.0482 22.9415C21.4546 22.9386 17.9359 23.9589 14.9116 25.8808C11.8873 23.9589 8.36867 22.9386 4.77507 22.9415C3.72181 22.9457 2.67073 23.0369 1.63274 23.2139C1.44424 23.2435 1.26351 23.3097 1.10095 23.4088C0.938389 23.5078 0.7972 23.6377 0.685503 23.7909C0.573806 23.9441 0.493805 24.1177 0.450099 24.3017C0.406394 24.4856 0.399847 24.6763 0.430835 24.8628C0.504424 25.2352 0.724056 25.5635 1.04162 25.7758C1.35918 25.9881 1.74879 26.0671 2.12509 25.9956C4.20021 25.6398 6.32626 25.6988 8.37799 26.1692C10.4297 26.6395 12.3656 27.5116 14.0717 28.7342C14.317 28.9071 14.6106 29 14.9116 29C15.2127 29 15.5063 28.9071 15.7515 28.7342C17.4576 27.5116 19.3935 26.6395 21.4453 26.1692C23.497 25.6988 25.623 25.6398 27.6982 25.9956C28.0745 26.0671 28.4641 25.9881 28.7816 25.7758C29.0992 25.5635 29.3188 25.2352 29.3924 24.8628C29.4234 24.6763 29.4168 24.4856 29.3731 24.3017C29.3294 24.1177 29.2494 23.9441 29.1377 23.7909C29.026 23.6377 28.8849 23.5078 28.7223 23.4088C28.5597 23.3097 28.379 23.2435 28.1905 23.2139Z" fill="#439289"/>
</svg>
