<svg width="30" height="29" viewBox="0 0 30 29" fill="none" xmlns="http://www.w3.org/2000/svg">
<path d="M2.08754 23.7828C3.50761 22.9545 5.12212 22.5181 6.76611 22.5181C8.4101 22.5181 10.0246 22.9545 11.4447 23.7828L12.9975 24.6886C13.7077 25.103 14.5153 25.3214 15.3375 25.3214C16.1598 25.3214 16.9673 25.103 17.6775 24.6886L19.2304 23.7828C20.6505 22.9545 22.265 22.5181 23.909 22.5181C25.553 22.5181 27.1675 22.9545 28.5875 23.7828L28.7347 23.8686C28.8563 23.9395 28.9627 24.0336 29.0478 24.1457C29.133 24.2577 29.1953 24.3854 29.2311 24.5215C29.2669 24.6576 29.2756 24.7995 29.2566 24.9389C29.2376 25.0784 29.1913 25.2127 29.1204 25.3343C29.0495 25.4558 28.9553 25.5622 28.8433 25.6474C28.7312 25.7326 28.6035 25.7949 28.4674 25.8307C28.3313 25.8665 28.1895 25.8752 28.05 25.8562C27.9106 25.8372 27.7762 25.7909 27.6547 25.72L27.5075 25.6343C26.4153 24.9972 25.1734 24.6616 23.909 24.6616C22.6445 24.6616 21.4027 24.9972 20.3104 25.6343L18.7561 26.54C17.7185 27.1452 16.5389 28.5261 15.3376 28.5261C14.1364 28.5261 12.9566 27.1452 11.919 26.54L10.3647 25.6343C9.2724 24.9972 8.03059 24.6616 6.76611 24.6616C5.50163 24.6616 4.25982 24.9972 3.16754 25.6343L3.0204 25.72C2.77488 25.8632 2.48253 25.903 2.20766 25.8307C1.93278 25.7584 1.6979 25.5798 1.55468 25.3343C1.41147 25.0888 1.37165 24.7964 1.44398 24.5215C1.51632 24.2467 1.69488 24.0118 1.9404 23.8686L2.08754 23.7828Z" fill="#439289"/>
<path fill-rule="evenodd" clip-rule="evenodd" d="M14.2729 2.60072C12.2986 1.41654 10.0773 0.704957 7.78248 0.521569C5.48766 0.338182 3.18152 0.687962 1.04429 1.54357C0.735963 1.66693 0.47168 1.87985 0.285538 2.15486C0.0993973 2.42987 -6.01249e-05 2.75435 2.7269e-08 3.08643V19.7436C2.7269e-08 20.8579 1.12714 21.6207 2.16286 21.2064C3.91305 20.5064 5.80141 20.2206 7.68037 20.3712C9.55934 20.5219 11.378 21.105 12.9943 22.075L14.6157 23.0464C14.74 23.1221 14.8729 23.1536 15 23.1521C15.1358 23.1545 15.2696 23.1184 15.3857 23.0479L17.0057 22.075C18.622 21.105 20.4407 20.5219 22.3196 20.3712C24.1986 20.2206 26.087 20.5064 27.8371 21.2064C28.0764 21.3021 28.3355 21.3378 28.5918 21.3102C28.848 21.2825 29.0936 21.1926 29.307 21.0481C29.5204 20.9036 29.6952 20.709 29.816 20.4813C29.9368 20.2537 30 19.9999 30 19.7421V3.08643C30 2.40643 29.5857 1.79643 28.9557 1.54357C26.8185 0.688619 24.5125 0.33944 22.2179 0.523321C19.9234 0.707203 17.7024 1.41916 15.7286 2.60357L15 3.04072L14.2714 2.60357L14.2729 2.60072ZM16.0729 6.015C16.0729 5.73084 15.96 5.45832 15.759 5.25739C15.5581 5.05646 15.2856 4.94357 15.0014 4.94357C14.7173 4.94357 14.4447 5.05646 14.2438 5.25739C14.0429 5.45832 13.93 5.73084 13.93 6.015V19.5864C13.93 19.8706 14.0429 20.1431 14.2438 20.344C14.4447 20.545 14.7173 20.6579 15.0014 20.6579C15.2856 20.6579 15.5581 20.545 15.759 20.344C15.96 20.1431 16.0729 19.8706 16.0729 19.5864V6.015Z" fill="#439289"/>
</svg>
