<svg width="31" height="29" viewBox="0 0 31 29" fill="none" xmlns="http://www.w3.org/2000/svg">
<path fill-rule="evenodd" clip-rule="evenodd" d="M14.7486 2.67551C12.7086 1.45186 10.4132 0.716557 8.0419 0.527057C5.67058 0.337557 3.28757 0.698996 1.0791 1.58313C0.760495 1.71059 0.487402 1.93061 0.295056 2.21479C0.102711 2.49896 -6.21291e-05 2.83426 2.8178e-08 3.17741V20.3898C2.8178e-08 21.5412 1.16471 22.3295 2.23495 21.9014C4.04348 21.178 5.99479 20.8827 7.93638 21.0384C9.87798 21.1941 11.7573 21.7966 13.4274 22.7989L15.1029 23.8027C15.2313 23.881 15.3686 23.9135 15.5 23.912C15.6404 23.9145 15.7786 23.8771 15.8986 23.8042L17.5726 22.7989C19.2427 21.7966 21.122 21.1941 23.0636 21.0384C25.0052 20.8827 26.9565 21.178 28.765 21.9014C29.0123 22.0003 29.2801 22.0371 29.5449 22.0086C29.8096 21.9801 30.0634 21.8871 30.2839 21.7378C30.5045 21.5885 30.685 21.3874 30.8099 21.1521C30.9347 20.9169 31 20.6546 31 20.3883V3.17741C31 2.47475 30.5719 1.84441 29.9209 1.58313C27.7124 0.699675 25.3295 0.338857 22.9585 0.528868C20.5875 0.718879 18.2925 1.45457 16.2529 2.67846L15.5 3.13018L14.7471 2.67846L14.7486 2.67551ZM16.6086 6.2036C16.6086 5.90997 16.492 5.62837 16.2843 5.42074C16.0767 5.21311 15.7951 5.09646 15.5015 5.09646C15.2078 5.09646 14.9262 5.21311 14.7186 5.42074C14.511 5.62837 14.3943 5.90997 14.3943 6.2036V20.2274C14.3943 20.521 14.511 20.8027 14.7186 21.0103C14.9262 21.2179 15.2078 21.3346 15.5015 21.3346C15.7951 21.3346 16.0767 21.2179 16.2843 21.0103C16.492 20.8027 16.6086 20.521 16.6086 20.2274V6.2036Z" fill="#439289"/>
<path d="M1.80963 24.7181C3.27703 23.8621 4.94537 23.4111 6.64415 23.4111C8.34294 23.4111 10.0113 23.8621 11.4787 24.7181L13.0833 25.654C13.8172 26.0822 14.6516 26.3079 15.5013 26.3079C16.351 26.3079 17.1854 26.0822 17.9193 25.654L19.5239 24.7181C20.9913 23.8621 22.6597 23.4111 24.3584 23.4111C26.0572 23.4111 27.7256 23.8621 29.193 24.7181L29.345 24.8066C29.4706 24.8799 29.5806 24.9772 29.6686 25.093C29.7566 25.2088 29.821 25.3407 29.858 25.4814C29.895 25.622 29.9039 25.7686 29.8843 25.9127C29.8647 26.0568 29.8169 26.1956 29.7436 26.3212C29.6703 26.4468 29.573 26.5568 29.4572 26.6448C29.3415 26.7328 29.2095 26.7972 29.0688 26.8342C28.9282 26.8712 28.7817 26.8801 28.6376 26.8605C28.4935 26.8409 28.3546 26.7931 28.229 26.7198L28.077 26.6312C26.9483 25.9729 25.6651 25.6261 24.3584 25.6261C23.0518 25.6261 21.7686 25.9729 20.6399 26.6312L19.0338 27.5671C17.9616 28.1925 16.7426 28.522 15.5013 28.522C14.26 28.522 13.041 28.1925 11.9688 27.5671L10.3627 26.6312C9.23399 25.9729 7.95078 25.6261 6.64415 25.6261C5.33753 25.6261 4.05432 25.9729 2.92563 26.6312L2.77358 26.7198C2.51988 26.8678 2.21779 26.9089 1.93375 26.8342C1.64971 26.7594 1.407 26.5749 1.25901 26.3212C1.11102 26.0675 1.06987 25.7654 1.14462 25.4814C1.21937 25.1973 1.40388 24.9546 1.65758 24.8066L1.80963 24.7181Z" fill="#439289"/>
</svg>
