<svg width="31" height="29" viewBox="0 0 31 29" fill="none" xmlns="http://www.w3.org/2000/svg">
<path fill-rule="evenodd" clip-rule="evenodd" d="M14.9261 24.1612C15.0988 24.2676 15.2976 24.3231 15.5 24.3212C15.7024 24.3231 15.9012 24.2676 16.0739 24.1612L17.7104 23.1706C19.294 22.2119 21.0758 21.6357 22.9167 21.4868C24.7576 21.3379 26.6077 21.6205 28.3225 22.3124C29.6057 22.8302 31 21.876 31 20.4839V3.52596C31 2.68519 30.4925 1.93024 29.7182 1.6175C27.5095 0.726301 25.1265 0.362372 22.7553 0.554148C20.3842 0.745923 18.0891 1.48821 16.0494 2.72301L15.5 3.05175L14.9492 2.71865C12.9095 1.48385 10.6144 0.74156 8.24322 0.549784C5.87205 0.358008 3.48904 0.721937 1.28038 1.61314C0.901679 1.76603 0.577192 2.03008 0.348918 2.37111C0.120645 2.71215 -0.000904558 3.11445 5.06835e-06 3.52596V20.4868C5.06835e-06 21.8789 1.39428 22.8317 2.67754 22.3138C4.39228 21.6219 6.24238 21.3394 8.08328 21.4882C9.92419 21.6371 11.706 22.2134 13.2896 23.172L14.9261 24.1612ZM2.1628 3.61033V20.1741C4.15551 19.4207 6.29107 19.1306 8.41033 19.3255C10.5296 19.5205 12.578 20.1954 14.4027 21.2999L14.4186 21.3087V4.94421L13.8375 4.5922C12.0959 3.53783 10.1375 2.90098 8.11342 2.73075C6.08929 2.56052 4.05344 2.86144 2.1628 3.61033ZM16.5973 21.2985L16.5814 21.3087V4.94421L17.1625 4.5922C18.9041 3.53783 20.8625 2.90098 22.8866 2.73075C24.9107 2.56052 26.9466 2.86144 28.8372 3.61033V20.1741C26.8445 19.4207 24.7089 19.1306 22.5897 19.3255C20.4704 19.5205 18.4221 20.1954 16.5973 21.2999V21.2985Z" fill="#439289"/>
<path d="M11.5708 24.7517C10.1375 23.9083 8.50794 23.4639 6.84866 23.4639C5.18938 23.4639 3.55984 23.9083 2.12657 24.7517L1.97806 24.839C1.85536 24.9112 1.74796 25.0071 1.66199 25.1211C1.57602 25.2352 1.51317 25.3653 1.47702 25.5039C1.44087 25.6424 1.43213 25.7869 1.4513 25.9289C1.47047 26.0708 1.51718 26.2076 1.58875 26.3314C1.66033 26.4552 1.75537 26.5636 1.86845 26.6503C1.98153 26.737 2.11043 26.8004 2.2478 26.8369C2.38517 26.8734 2.52832 26.8822 2.66906 26.8628C2.80981 26.8435 2.9454 26.7964 3.0681 26.7242L3.21661 26.6369C4.31905 25.9882 5.57242 25.6464 6.84866 25.6464C8.1249 25.6464 9.37826 25.9882 10.4807 26.6369L12.0494 27.5591C13.0968 28.1753 14.2874 28.5 15.4998 28.5C16.7122 28.5 17.9029 28.1753 18.9502 27.5591L20.5189 26.6369C21.6214 25.9882 22.8747 25.6464 24.151 25.6464C25.4272 25.6464 26.6806 25.9882 27.783 26.6369L27.9315 26.7242C28.1793 26.87 28.4744 26.9105 28.7518 26.8369C29.0293 26.7632 29.2663 26.5814 29.4109 26.3314C29.5554 26.0814 29.5956 25.7837 29.5226 25.5039C29.4496 25.224 29.2694 24.9848 29.0216 24.839L28.8731 24.7517C27.4398 23.9083 25.8103 23.4639 24.151 23.4639C22.4917 23.4639 20.8622 23.9083 19.4289 24.7517L17.8616 25.6739C17.1448 26.0959 16.3297 26.3183 15.4998 26.3183C14.6699 26.3183 13.8549 26.0959 13.1381 25.6739L11.5708 24.7517Z" fill="#439289"/>
</svg>
