<svg width="28" height="29" viewBox="0 0 28 29" fill="none" xmlns="http://www.w3.org/2000/svg">
<path d="M14 14.5C12.075 14.5 10.4271 13.8146 9.05625 12.4437C7.68542 11.0729 7 9.425 7 7.5C7 5.575 7.68542 3.92708 9.05625 2.55625C10.4271 1.18542 12.075 0.5 14 0.5C15.925 0.5 17.5729 1.18542 18.9437 2.55625C20.3146 3.92708 21 5.575 21 7.5C21 9.425 20.3146 11.0729 18.9437 12.4437C17.5729 13.8146 15.925 14.5 14 14.5ZM0 28.5V23.6C0 22.6083 0.2555 21.6966 0.7665 20.8647C1.2775 20.0329 1.95533 19.3988 2.8 18.9625C4.60833 18.0583 6.44583 17.3799 8.3125 16.9272C10.1792 16.4746 12.075 16.2488 14 16.25C15.925 16.25 17.8208 16.4763 19.6875 16.929C21.5542 17.3817 23.3917 18.0595 25.2 18.9625C26.0458 19.4 26.7242 20.0347 27.2352 20.8665C27.7462 21.6983 28.0012 22.6095 28 23.6V28.5H0Z" fill="#439289"/>
</svg>
