<svg width="29" height="29" viewBox="0 0 29 29" fill="none" xmlns="http://www.w3.org/2000/svg">
<path d="M14.4116 14.5C12.4866 14.5 10.8387 13.8146 9.46787 12.4437C8.09704 11.0729 7.41162 9.425 7.41162 7.5C7.41162 5.575 8.09704 3.92708 9.46787 2.55625C10.8387 1.18542 12.4866 0.5 14.4116 0.5C16.3366 0.5 17.9845 1.18542 19.3554 2.55625C20.7262 3.92708 21.4116 5.575 21.4116 7.5C21.4116 9.425 20.7262 11.0729 19.3554 12.4437C17.9845 13.8146 16.3366 14.5 14.4116 14.5ZM0.411621 28.5V23.6C0.411621 22.6083 0.667121 21.6966 1.17812 20.8647C1.68912 20.0329 2.36695 19.3988 3.21162 18.9625C5.01995 18.0583 6.85745 17.3799 8.72412 16.9272C10.5908 16.4746 12.4866 16.2488 14.4116 16.25C16.3366 16.25 18.2325 16.4763 20.0991 16.929C21.9658 17.3817 23.8033 18.0595 25.6116 18.9625C26.4574 19.4 27.1359 20.0347 27.6469 20.8665C28.1579 21.6983 28.4128 22.6095 28.4116 23.6V28.5H0.411621ZM3.91162 25H24.9116V23.6C24.9116 23.2792 24.8311 22.9875 24.6701 22.725C24.5091 22.4625 24.298 22.2583 24.0366 22.1125C22.4616 21.325 20.872 20.7347 19.2679 20.3415C17.6637 19.9483 16.045 19.7512 14.4116 19.75C12.7783 19.75 11.1595 19.9472 9.55537 20.3415C7.9512 20.7358 6.36162 21.3262 4.78662 22.1125C4.52412 22.2583 4.31237 22.4625 4.15137 22.725C3.99037 22.9875 3.91045 23.2792 3.91162 23.6V25ZM14.4116 11C15.3741 11 16.1984 10.657 16.8844 9.971C17.5704 9.285 17.9128 8.46133 17.9116 7.5C17.9116 6.5375 17.5686 5.71325 16.8826 5.02725C16.1966 4.34125 15.373 3.99883 14.4116 4C13.4491 4 12.6249 4.343 11.9389 5.029C11.2529 5.715 10.9105 6.53867 10.9116 7.5C10.9116 8.4625 11.2546 9.28675 11.9406 9.97275C12.6266 10.6587 13.4503 11.0012 14.4116 11Z" fill="#439289"/>
</svg>
