<svg width="58" height="58" viewBox="0 0 58 58" fill="none" xmlns="http://www.w3.org/2000/svg">
<g id="mdi:police-station">
<path id="Vector" d="M28.9999 24.1666C28.9999 24.1666 38.6666 22.2333 38.6666 18.3666C38.6666 16.4333 36.7332 12.5666 36.7332 10.6333C36.7332 8.69992 38.6666 6.76658 38.6666 6.76658L36.7332 4.83325C35.6216 5.46159 34.2199 5.79992 32.8666 5.79992C31.5133 5.79992 30.1116 5.43742 28.9999 4.83325C27.8883 5.43742 26.4866 5.79992 25.1332 5.79992C23.7799 5.79992 22.3783 5.46159 21.2666 4.83325L19.3333 6.76658C19.3333 6.76658 21.2666 8.69992 21.2666 10.6333C21.2666 12.5666 19.3333 16.4333 19.3333 18.3666C19.3333 22.2333 28.9999 24.1666 28.9999 24.1666ZM27.6224 12.8566L28.9999 9.66658L30.3291 12.8566L33.8333 13.1466L31.1508 15.4183L31.9483 18.8016L28.9999 17.0133L26.0033 18.8016L26.8008 15.4183L24.1666 13.1466L27.6224 12.8566ZM50.7499 14.4999H40.2374C40.6966 15.9016 41.0832 17.2066 41.0832 18.3666C41.0832 23.8041 32.1899 26.0033 29.4832 26.5833H28.5166C25.8099 26.0033 16.9166 23.8041 16.9166 18.3666C16.9166 17.2066 17.3033 15.9016 17.7624 14.4999H7.24992C5.92075 14.4999 4.83325 15.5874 4.83325 16.9166V53.1666H24.1666V41.0832H33.8333V53.1666H53.1666V16.9166C53.1666 15.5874 52.0791 14.4999 50.7499 14.4999ZM19.3333 48.3332H9.66658V41.0832H19.3333V48.3332ZM19.3333 36.2499H9.66658V28.9999H19.3333V36.2499ZM33.8333 36.2499H24.1666V28.9999H33.8333V36.2499ZM48.3332 48.3332H38.6666V41.0832H48.3332V48.3332ZM48.3332 36.2499H38.6666V28.9999H48.3332V36.2499Z" fill="#A2ABFC"/>
</g>
</svg>
