<svg width="65" height="65" viewBox="0 0 65 65" fill="none" xmlns="http://www.w3.org/2000/svg">
<g id="material-symbols:home-pin">
<path id="Vector" d="M33 57C26.6271 51.52 21.8676 46.4304 18.7215 41.7312C15.5754 37.032 14.0016 32.6816 14 28.68C14 22.68 15.9103 17.9 19.7309 14.34C23.5515 10.78 27.9745 9 33 9C38.0271 9 42.4509 10.78 46.2715 14.34C50.0921 17.9 52.0016 22.68 52 28.68C52 32.68 50.4262 37.0304 47.2785 41.7312C44.1308 46.432 39.3713 51.5216 33 57ZM25.875 35.4H30.625V28.8H35.375V35.4H40.125V24L33 19.2L25.875 24V35.4Z" fill="#4BC0AF"/>
</g>
</svg>
