<svg width="59" height="58" viewBox="0 0 59 58" fill="none" xmlns="http://www.w3.org/2000/svg">
<g id="material-symbols:ecg-heart-sharp">
<path id="Vector" d="M39.6407 7.25C43.7379 7.25 47.1698 8.74028 49.9362 11.7208C52.7027 14.7014 54.0851 18.2458 54.0834 22.3542C54.0834 23.0792 54.0424 23.7945 53.9605 24.5002C53.8786 25.2058 53.7352 25.9002 53.5303 26.5833H38.1657L34.048 20.4208H29.623L26.3042 30.8125L23.4157 26.5833H5.46987C5.26501 25.8986 5.12161 25.2034 5.03966 24.4977C4.95772 23.7921 4.91675 23.0977 4.91675 22.4146C4.91675 18.266 6.28932 14.7014 9.03446 11.7208C11.7796 8.74028 15.2008 7.25 19.298 7.25C21.2647 7.25 23.1191 7.63264 24.8612 8.39792C26.6033 9.16319 28.1496 10.2306 29.5001 11.6C30.8112 10.2306 32.3378 9.16319 34.08 8.39792C35.8221 7.63264 37.6757 7.25 39.6407 7.25ZM29.4386 53.0458L9.09592 32.9271C8.85008 32.6854 8.62473 32.4437 8.41987 32.2021C8.21501 31.9604 8.01015 31.6986 7.80529 31.4167H20.773L25.0136 37.6396H29.3772L32.6959 27.1875L35.523 31.4167H51.1334L50.5188 32.1417L49.9042 32.8667L29.4386 53.0458Z" fill="#E25A5A"/>
</g>
</svg>
