<svg width="48" height="48" viewBox="0 0 48 48" fill="none" xmlns="http://www.w3.org/2000/svg">
<g id="grommet-icons:archlinux" clip-path="url(#clip0_28_842)">
<path id="Vector" fill-rule="evenodd" clip-rule="evenodd" d="M23.99 0C21.854 5.238 20.566 8.664 18.188 13.746C19.646 15.292 21.436 17.092 24.342 19.126C21.218 17.84 19.086 16.548 17.492 15.208C14.448 21.56 9.68 30.608 0 48C7.608 43.608 13.504 40.9 19 39.868C18.752 38.7993 18.6312 37.7051 18.64 36.608L18.648 36.366C18.768 31.492 21.304 27.744 24.308 27.998C27.31 28.252 29.644 32.412 29.524 37.286C29.502 38.204 29.398 39.086 29.218 39.904C34.652 40.968 40.486 43.668 47.992 48C46.512 45.276 45.192 42.82 43.93 40.48C41.942 38.94 39.87 36.938 35.644 34.768C38.548 35.522 40.63 36.394 42.25 37.368C29.426 13.492 28.39 10.32 23.99 0Z" fill="#4BC0AF"/>
</g>
<defs>
<clipPath id="clip0_28_842">
<rect width="48" height="48" fill="white"/>
</clipPath>
</defs>
</svg>
