<svg width="55" height="55" viewBox="0 0 55 55" fill="none" xmlns="http://www.w3.org/2000/svg">
<g id="game-icons:bloody-sword">
<path id="Vector" d="M3.77501 3.84576C3.45874 3.8379 3.14623 3.91575 2.8706 4.07105C2.59497 4.22635 2.36648 4.45332 2.20934 4.7279C1.72626 5.57009 2.01598 6.64538 2.85666 7.12932C3.37272 7.42656 3.976 7.43064 4.47723 7.19538L11.8419 11.4251L8.64101 17.0064L11.7036 18.7778C12.3883 13.4637 14.7055 9.09009 19.0863 5.90471L16.0237 4.13311L12.8408 9.6836L5.48001 5.45633C5.43275 4.90139 5.12445 4.37782 4.60614 4.0794C4.35304 3.93311 4.06726 3.85285 3.77501 3.84576ZM20.2206 11.5406L16.1501 11.6096L43.165 27.1578L42.1636 28.8978L14.9375 13.2282L17.0742 17.0025C17.4948 17.2037 20.2848 18.5485 23.4953 20.6396C26.7948 22.7885 30.3727 25.4732 31.4872 28.6643C31.9778 28.9081 34.8697 30.3289 38.9616 31.6467C43.0393 32.9599 47.9945 33.9729 51.8428 33.3204C50.4471 29.5062 47.0517 25.7847 43.8446 23.0084C40.8705 20.4341 38.2436 18.7485 37.4941 18.2821C34.1737 18.9255 30.0616 17.137 26.5521 15.3247C23.1544 13.5702 20.6122 11.8131 20.2207 11.5405L20.2206 11.5406ZM17.321 19.3717C17.9251 21.2443 18.4335 23.6228 18.8797 26.31V34.6123H20.8871V30.0877C22.4632 27.0219 25.2858 29.7508 26.3334 35.838V53.1333H28.3409V36.0798C29.6966 34.6632 31.339 36.4773 32.5277 39.5431V43.3217H34.5354V40.5602C36.3677 38.3337 39.5247 39.9492 40.9732 45.8348V53.0201H42.9807V45.8153C44.8686 39.5714 48.2608 36.7508 50.9722 35.4705C46.815 35.8751 42.1932 34.7964 38.3462 33.5574C33.7302 32.0709 30.2143 30.2864 30.2143 30.2864L29.8147 30.0837L29.6989 29.6511C29.1124 27.4631 25.7256 24.4881 22.3996 22.3219C20.4364 21.043 18.5509 20.0112 17.3211 19.3718L17.321 19.3717ZM19.8835 38.8666C18.6327 38.8666 17.619 39.8804 17.619 41.131C17.619 42.3818 18.6327 43.3955 19.8835 43.3955C21.1342 43.3955 22.1479 42.3818 22.1479 41.131C22.1479 39.8804 21.1342 38.8666 19.8835 38.8666ZM50.3648 39.6755C50.3648 39.6755 48.1004 45.333 48.1004 46.5838C48.1004 47.8345 49.1141 48.8482 50.3648 48.8482C51.6156 48.8482 52.6293 47.8345 52.6293 46.5838C52.6293 45.333 50.3648 39.6755 50.3648 39.6755ZM33.5316 45.7736C32.2809 45.7736 31.267 46.7872 31.267 48.038C31.267 49.2886 32.281 50.3025 33.5316 50.3025C34.7823 50.3025 35.7961 49.2886 35.7961 48.038C35.7961 46.7872 34.7823 45.7736 33.5316 45.7736Z" fill="#E05050"/>
</g>
</svg>
