<svg width="41" height="41" viewBox="0 0 41 41" fill="none" xmlns="http://www.w3.org/2000/svg">
<g id="zondicons:travel-case">
<path id="Vector" d="M28.7 10.2501H32.8V38.9501H8.2V10.2501H12.3V8.2001C12.3 7.11271 12.732 6.06986 13.5009 5.30096C14.2698 4.53206 15.3126 4.1001 16.4 4.1001H24.6C25.6874 4.1001 26.7302 4.53206 27.4991 5.30096C28.268 6.06986 28.7 7.11271 28.7 8.2001V10.2501ZM34.85 10.2501H36.9C37.9874 10.2501 39.0302 10.6821 39.7991 11.451C40.568 12.2199 41 13.2627 41 14.3501V34.8501C41 35.9375 40.568 36.9803 39.7991 37.7492C39.0302 38.5181 37.9874 38.9501 36.9 38.9501H34.85V10.2501ZM6.15 10.2501V38.9501H4.1C3.01261 38.9501 1.96976 38.5181 1.20086 37.7492C0.431963 36.9803 0 35.9375 0 34.8501V14.3501C0 12.0951 1.845 10.2501 4.1 10.2501H6.15ZM16.4 8.2001V10.2501H24.6V8.2001H16.4Z" fill="#E25A5A"/>
</g>
</svg>
